<svg xmlns="http://www.w3.org/2000/svg" width="15856" height="15856" viewBox="0 0 15856 15856" fill="none">
<path d="M4459.34 2477.86H3963.82C3220.53 2477.86 2477.25 3350.63 2477.25 4223.4V6550.79C2477.25 7830.86 1486.2 8878.18 663.633 8878.18C1486.2 8878.18 2477.25 9925.51 2477.25 11205.6V13533C2477.25 14405.7 3220.53 15278.5 3963.82 15278.5H4459.34M11396.7 2477.86H11892.2C12635.5 2477.86 13378.8 3350.63 13378.8 4223.4V6550.79C13378.8 7830.86 14369.8 8878.18 15192.4 8878.18C14369.8 8878.18 13378.8 9925.51 13378.8 11205.6V13533C13378.8 14394.1 12635.5 15278.5 11892.2 15278.5H11396.7M4954.86 11787.4C5086.28 11787.4 5212.32 11726.1 5305.25 11617C5398.18 11507.9 5450.39 11359.9 5450.39 11205.6C5450.39 11051.3 5398.18 10903.3 5305.25 10794.1C5212.32 10685 5086.28 10623.7 4954.86 10623.7C4823.44 10623.7 4697.4 10685 4604.47 10794.1C4511.55 10903.3 4459.34 11051.3 4459.34 11205.6C4459.34 11359.9 4511.55 11507.9 4604.47 11617C4697.4 11726.1 4823.44 11787.4 4954.86 11787.4ZM7928 11787.4C8059.42 11787.4 8185.46 11726.1 8278.39 11617C8371.32 11507.9 8423.52 11359.9 8423.52 11205.6C8423.52 11051.3 8371.32 10903.3 8278.39 10794.1C8185.46 10685 8059.42 10623.7 7928 10623.7C7796.58 10623.7 7670.54 10685 7577.61 10794.1C7484.68 10903.3 7432.48 11051.3 7432.48 11205.6C7432.48 11359.9 7484.68 11507.9 7577.61 11617C7670.54 11726.1 7796.58 11787.4 7928 11787.4ZM10901.1 11787.4C11032.6 11787.4 11158.6 11726.1 11251.5 11617C11344.5 11507.9 11396.7 11359.9 11396.7 11205.6C11396.7 11051.3 11344.5 10903.3 11251.5 10794.1C11158.6 10685 11032.6 10623.7 10901.1 10623.7C10769.7 10623.7 10643.7 10685 10550.7 10794.1C10457.8 10903.3 10405.6 11051.3 10405.6 11205.6C10405.6 11359.9 10457.8 11507.9 10550.7 11617C10643.7 11726.1 10769.7 11787.4 10901.1 11787.4Z" stroke="#2A9D8F" stroke-width="1000" stroke-linecap="round" stroke-linejoin="round"/>
</svg>